<svg xmlns="http://www.w3.org/2000/svg" viewBox="0 0 200 60" width="200" height="60">
  <g fill="#E53935">
    <path d="M20 10c-8.28 0-15 6.72-15 15s6.72 15 15 15 15-6.72 15-15-6.72-15-15-15zm-1.5 9c-.83 0-1.5-.67-1.5-1.5s.67-1.5 1.5-1.5 1.5.67 1.5 1.5-.67 1.5-1.5 1.5zm4.5 6c-.83 0-1.5-.67-1.5-1.5s.67-1.5 1.5-1.5 1.5.67 1.5 1.5-.67 1.5-1.5 1.5zm-6 3c-.83 0-1.5-.67-1.5-1.5s.67-1.5 1.5-1.5 1.5.67 1.5 1.5-.67 1.5-1.5 1.5z" />
  </g>
  <g fill="#333333">
    <path d="M60 25.5c0 3.31-2.69 6-6 6s-6-2.69-6-6 2.69-6 6-6 6 2.69 6 6zm-6-3c-1.66 0-3 1.34-3 3s1.34 3 3 3 3-1.34 3-3-1.34-3-3-3z" />
    <path d="M76 19.5c-3.31 0-6 2.69-6 6s2.69 6 6 6 6-2.69 6-6-2.69-6-6-6zm0 9c-1.66 0-3-1.34-3-3s1.34-3 3-3 3 1.34 3 3-1.34 3-3 3z" />
    <path d="M92 19.5c-3.31 0-6 2.69-6 6s2.69 6 6 6 6-2.69 6-6-2.69-6-6-6zm0 9c-1.66 0-3-1.34-3-3s1.34-3 3-3 3 1.34 3 3-1.34 3-3 3z" />
    <path d="M108 19.5c-3.31 0-6 2.69-6 6V36h3v-4.5h6V36h3V25.5c0-3.31-2.69-6-6-6zm0 9h-3v-3c0-1.66 1.34-3 3-3s3 1.34 3 3-1.34 3-3 3z" />
    <path d="M124 19.5c-3.31 0-6 2.69-6 6s2.69 6 6 6c1.28 0 2.46-.41 3.44-1.09l.56.56V32.5l4.5 4.5 2.25-2.25-4.5-4.5h-1.53l-.56-.56c.68-.98 1.09-2.16 1.09-3.44 0-3.31-2.69-6-6-6zm0 9c-1.66 0-3-1.34-3-3s1.34-3 3-3 3 1.34 3 3-1.34 3-3 3z" />
    <path d="M147 19.5V36h9v-3h-6v-3h6v-3h-6v-4.5h6v-3z" />
    <path d="M163 19.5V36h9v-3h-6v-3h6v-3h-6v-4.5h6v-3z" />
    <path d="M182 19.5c-3.31 0-6 2.69-6 6v4.5c0 3.31 2.69 6 6 6 3.31 0 6-2.69 6-6V25.5c0-3.31-2.69-6-6-6zm0 13.5c-1.66 0-3-1.34-3-3V25.5c0-1.66 1.34-3 3-3s3 1.34 3 3V30c0 1.66-1.34 3-3 3z" />
  </g>
</svg>
